<svg width="16" height="16" viewBox="0 0 16 16" fill="none" xmlns="http://www.w3.org/2000/svg">
<g clip-path="url(#clip0_205_92)">
<path d="M15.9234 15.0059L13.454 6.39511C13.3994 6.20446 13.2136 6.07183 13.0014 6.07183H11.1828C11.5358 5.19925 11.7087 4.55908 11.7087 4.12581C11.7087 2.22451 10.045 0.677673 8.00001 0.677673C5.95505 0.677673 4.29134 2.22451 4.29134 4.12581C4.29134 4.55902 4.46423 5.19931 4.81725 6.07183H2.99864C2.78641 6.07183 2.60065 6.20446 2.546 6.39511L0.076643 15.0059C-0.00261689 15.2822 0.221672 15.5537 0.52928 15.5537H15.4708C15.7783 15.5537 16.0026 15.2823 15.9234 15.0059ZM8.00001 1.54874C9.52837 1.54874 10.7718 2.70481 10.7718 4.12581C10.7718 5.36342 8.61697 9.25887 8.00001 10.3487C7.38429 9.26102 5.22822 5.36394 5.22822 4.12581C5.22822 2.70481 6.47165 1.54874 8.00001 1.54874ZM7.5894 11.4818C7.76491 11.7788 8.23016 11.7882 8.41367 11.4765C8.83445 10.7616 9.46547 9.62664 9.96364 8.66481H11.1166L12.265 12.9601H3.73503L4.88339 8.66481H6.03631C6.53042 9.61903 7.19791 10.8193 7.5894 11.4818ZM1.13894 14.6826L3.35853 6.94289H5.19362C5.32072 7.22175 5.46013 7.51442 5.5971 7.79374H4.51713C4.30196 7.79374 4.11446 7.9301 4.06256 8.12417L2.68135 13.2906C2.6079 13.5654 2.83194 13.8312 3.13592 13.8312H12.8641C13.1686 13.8312 13.392 13.5649 13.3187 13.2906L11.9375 8.12417C11.8856 7.93004 11.6981 7.79374 11.4829 7.79374H10.4029C10.5351 7.52418 10.6747 7.23173 10.8064 6.94289H12.6415L14.8611 14.6826H1.13894Z" fill="#1D2730"/>
<path d="M9.88844 4.1258C9.88844 3.15764 9.04131 2.37003 8.00001 2.37003C6.9587 2.37003 6.11157 3.1577 6.11157 4.1258C6.11157 5.09425 6.9587 5.88216 8.00001 5.88216C9.04131 5.88216 9.88844 5.09425 9.88844 4.1258ZM7.04845 4.1258C7.04845 3.638 7.47529 3.24109 8.00001 3.24109C8.52472 3.24109 8.95156 3.638 8.95156 4.1258C8.95156 4.61394 8.52466 5.01109 8.00001 5.01109C7.47529 5.01109 7.04845 4.61394 7.04845 4.1258Z" fill="#1D2730"/>
</g>
<defs>
<clipPath id="clip0_205_92">
<rect width="16" height="14.876" fill="white" transform="translate(0 0.677673)"/>
</clipPath>
</defs>
</svg>
