<svg width="22" height="22" viewBox="0 0 16 16" fill="none" xmlns="http://www.w3.org/2000/svg">
<g clip-path="url(#clip0_8_30)">
<rect width="16" height="16" fill="#2C3E50"/>
<path d="M15.6257 13.8176L12.2921 10.4841L12.0526 10.7236L11.6833 10.3543C13.5763 7.81588 13.3734 4.20617 11.0678 1.90061C8.53272 -0.631177 4.43063 -0.631177 1.89884 1.90061C-0.632947 4.4324 -0.632947 8.53782 1.89884 11.0663C4.2044 13.3718 7.81411 13.5781 10.3525 11.6818L10.7218 12.0511L10.4823 12.2906L13.8159 15.6242C14.3149 16.1232 15.1267 16.1232 15.6257 15.6242C16.1248 15.1285 16.1248 14.32 15.6257 13.8176ZM9.65722 9.65899C7.90394 11.4123 5.05942 11.4123 3.30613 9.65899C1.55284 7.90571 1.55284 5.06119 3.30613 3.3079C5.05942 1.55461 7.90394 1.55461 9.65722 3.3079C11.4105 5.06119 11.4105 7.90571 9.65722 9.65899Z" fill="black"/>
<path d="M5.17919 6.19556C5.24573 6.62473 5.57842 7.17368 6.12404 7.36664C6.34694 7.44648 6.59314 7.44648 6.81604 7.36664C7.35167 7.17368 7.69435 6.62806 7.76089 6.19889C7.83408 6.19223 7.92723 6.09243 8.03037 5.72979C8.1701 5.23408 8.02039 5.16089 7.89729 5.17419C7.92058 5.10433 7.94054 5.03779 7.95052 4.97125C8.16344 3.69039 7.53133 3.64381 7.53133 3.64381C7.53133 3.64381 7.42819 3.4442 7.15206 3.29116C6.96908 3.18137 6.70958 3.0982 6.37023 3.12481C6.26044 3.13146 6.15731 3.15143 6.06083 3.18469C5.93773 3.22794 5.82129 3.28783 5.71816 3.36102C5.59173 3.44087 5.47196 3.54068 5.3655 3.65046C5.19915 3.82014 5.04944 4.04304 4.98623 4.31918C4.933 4.52544 4.94298 4.73837 4.98956 4.97125C5.00287 5.03779 5.0195 5.10766 5.04279 5.17419C4.91637 5.16089 4.76666 5.23408 4.90971 5.72979C5.01285 6.0891 5.10933 6.19223 5.17919 6.19556Z" fill="black"/>
<path d="M8.76228 7.93884C8.01039 7.65272 7.56126 7.35663 7.56126 7.35663L6.98237 9.18644L6.90253 9.43595L6.64303 8.7007C7.23854 7.86897 6.59645 7.82905 6.48666 7.82905C6.48666 7.82905 6.48666 7.82905 6.48333 7.82905C6.48333 7.82905 6.48333 7.82905 6.48001 7.82905C6.48001 7.82905 6.48001 7.82905 6.47668 7.82905C6.47335 7.82905 6.47668 7.82905 6.47335 7.82905C6.36356 7.82905 5.72147 7.86897 6.31699 8.7007L6.05749 9.43595L5.97764 9.18644L5.39876 7.35663C5.39876 7.35663 4.94962 7.6494 4.19774 7.93884C3.79185 8.08522 3.59889 8.32476 3.50241 8.67742C3.60887 8.8238 3.72864 8.96353 3.86172 9.09328C5.3056 10.5372 7.64443 10.5372 9.08831 9.09328C9.22139 8.96021 9.34116 8.82047 9.44762 8.67742C9.36112 8.32476 9.16483 8.08522 8.76228 7.93884Z" fill="black"/>
</g>
<defs>
<clipPath id="clip0_8_30">
<rect width="16" height="16" fill="white"/>
</clipPath>
</defs>
</svg>
