<svg width="16" height="16" viewBox="0 0 16 16" fill="none" xmlns="http://www.w3.org/2000/svg">
<g clip-path="url(#clip0_205_82)">
<path d="M9.0079 7.40256C8.68138 7.37823 8.36134 7.43934 8.07724 7.57626L6.87995 6.2691C6.98668 6.241 7.09907 6.23035 7.21302 6.2387C7.4642 6.25746 7.69253 6.36596 7.85593 6.54436C7.99637 6.69778 8.24413 6.7162 8.4091 6.58559C8.5741 6.45498 8.59396 6.22469 8.45344 6.07128C8.15415 5.7445 7.73589 5.54566 7.27573 5.51137C6.94882 5.48685 6.62893 5.54804 6.34495 5.68499L6.169 5.49287C6.02844 5.33946 5.78084 5.321 5.61583 5.45165C5.45083 5.58229 5.43098 5.81258 5.57149 5.96595L5.74788 6.15848C5.28143 6.7455 5.29159 7.57593 5.82192 8.15489C6.12121 8.48167 6.53947 8.68051 6.99963 8.7148C7.32646 8.73925 7.64635 8.6781 7.93033 8.54118L9.12766 9.84834C9.021 9.8764 8.9087 9.88702 8.79459 9.87866C8.54338 9.85991 8.31504 9.75141 8.15164 9.573C8.01112 9.41959 7.76344 9.40113 7.59848 9.53178C7.43347 9.66242 7.41362 9.89271 7.55413 10.0461C7.85346 10.3729 8.27172 10.5717 8.73188 10.606C8.77901 10.6095 8.82594 10.6113 8.87276 10.6113C9.15026 10.6113 9.41968 10.5497 9.66274 10.4326L9.83861 10.6246C9.91627 10.7093 10.0265 10.7529 10.1375 10.7529C10.2275 10.7529 10.3179 10.7243 10.3918 10.6658C10.5568 10.5351 10.5766 10.3049 10.4361 10.1515L10.2601 9.95929C10.4507 9.72043 10.5665 9.43648 10.5927 9.13265C10.6296 8.70481 10.4851 8.28926 10.1858 7.96251C9.88629 7.63566 9.46803 7.43682 9.0079 7.40256ZM7.06226 7.9875C6.81109 7.96875 6.58275 7.86025 6.41935 7.68185C6.17281 7.41271 6.13227 7.04404 6.2828 6.74258L7.39529 7.95715C7.28852 7.98524 7.17614 7.99589 7.06226 7.9875ZM8.61216 8.16025C8.71894 8.13216 8.83128 8.12151 8.94519 8.12986C9.19641 8.14862 9.42475 8.25712 9.58814 8.43552C9.75154 8.61393 9.83045 8.84074 9.81032 9.07431C9.80117 9.18026 9.77198 9.28176 9.72509 9.3753L8.61216 8.16025Z" fill="#1D2730"/>
<path d="M12.4133 4.56722C10.3426 2.30667 6.67995 2.03381 4.24844 3.95893C3.07061 4.89156 2.35393 6.19478 2.23032 7.62859C2.1068 9.06239 2.59114 10.4551 3.59423 11.5502C4.59732 12.6453 5.99897 13.3116 7.54115 13.4265C7.69905 13.4383 7.85644 13.4441 8.01317 13.4441C9.38664 13.4441 10.7019 12.9955 11.759 12.1584C14.1904 10.2332 14.4839 6.82785 12.4133 4.56722ZM10.9958 11.3252C10.0573 12.0682 8.86389 12.4272 7.63513 12.3355C6.40644 12.244 5.28967 11.713 4.49043 10.8405C3.69123 9.96798 3.3053 8.85833 3.40376 7.71593C3.50221 6.57356 4.07327 5.53524 5.0117 4.79214C5.87874 4.10563 6.94187 3.76998 8.00033 3.76998C9.30671 3.76998 10.6056 4.28177 11.517 5.27679C13.1668 7.07801 12.933 9.79125 10.9958 11.3252Z" fill="#1D2730"/>
<path d="M14.4957 3.71231L14.9865 3.84489C15.1946 3.90107 15.4123 3.7898 15.4728 3.59629C15.5332 3.40278 15.4135 3.20037 15.2054 3.14415L13.5573 2.69909C13.4387 2.66713 13.311 2.6888 13.2123 2.75768C13.1136 2.82664 13.0555 2.9347 13.0555 3.04944V4.73494C13.0555 4.9364 13.2312 5.09978 13.4479 5.09978C13.6646 5.09978 13.8403 4.9364 13.8403 4.73494V4.11436C16.0362 6.91906 15.5688 10.88 12.6819 13.1659C11.5323 14.0761 10.1323 14.6212 8.63343 14.742C8.41749 14.7594 8.25767 14.9362 8.27635 15.1369C8.29408 15.327 8.46545 15.4703 8.66683 15.4703C8.67821 15.4703 8.68966 15.4698 8.70116 15.4689C10.3636 15.3349 11.9161 14.7307 13.1907 13.7214C16.3824 11.1942 16.9066 6.82048 14.4957 3.71231Z" fill="#1D2730"/>
<path d="M7.28185 14.7333C5.4192 14.5594 3.72478 13.7337 2.51062 12.4082C0.897459 10.647 0.375488 8.27493 1.11426 6.06275C1.17854 5.87034 1.06286 5.66589 0.855904 5.60613C0.648874 5.5464 0.429051 5.65396 0.364776 5.84633C-0.454281 8.29875 0.124548 10.9286 1.91311 12.8812C3.25936 14.3509 5.13813 15.2665 7.20341 15.4594C7.21675 15.4606 7.22997 15.4612 7.24308 15.4612C7.44214 15.4612 7.61276 15.3209 7.63305 15.1328C7.65475 14.9323 7.49747 14.7535 7.28185 14.7333Z" fill="#1D2730"/>
<path d="M1.11508 5.03104C1.17414 5.06052 1.23771 5.07449 1.30037 5.07449C1.44023 5.07449 1.57564 5.00477 1.64643 4.88218C1.75866 4.68784 1.88274 4.49659 2.01513 4.31377C2.13623 4.14664 2.08863 3.91993 1.90887 3.80738C1.72911 3.69479 1.48527 3.73901 1.36422 3.90618C1.21726 4.10906 1.07957 4.32129 0.954944 4.53701C0.852488 4.71451 0.924141 4.93567 1.11508 5.03104Z" fill="#1D2730"/>
<path d="M3.0714 3.03853C3.16133 3.03853 3.25178 3.00992 3.32563 2.95144C4.7181 1.84891 6.49069 1.28239 8.31669 1.3566C8.53298 1.36576 8.71635 1.20935 8.7258 1.008C8.73526 0.806684 8.56739 0.63638 8.35087 0.627624C6.32655 0.545536 4.36067 1.17349 2.81681 2.39594C2.6518 2.52659 2.63195 2.75687 2.77247 2.91025C2.85012 2.995 2.96039 3.03853 3.0714 3.03853Z" fill="#1D2730"/>
</g>
<defs>
<clipPath id="clip0_205_82">
<rect width="16" height="14.876" fill="white" transform="translate(0 0.607422)"/>
</clipPath>
</defs>
</svg>
