<svg width="22" height="22" viewBox="0 0 12 16" fill="none" xmlns="http://www.w3.org/2000/svg">
<path d="M7.58154 1.83698C7.65572 1.35139 7.50398 0.842194 7.13304 0.467886C6.50919 -0.155962 5.49755 -0.155962 4.87707 0.467886C4.50614 0.838822 4.35439 1.35139 4.42858 1.83361C4.91754 1.64139 5.44697 1.53348 6.00337 1.53348C6.55978 1.53348 7.09258 1.64139 7.58154 1.83698Z" fill="black"/>
<path d="M11.6484 13.9295C10.34 12.24 9.64192 10.1729 9.64192 8.02823V5.81947C9.64192 3.81304 8.00306 2.17755 6 2.17755C3.99357 2.17755 2.35808 3.80293 2.35808 5.81947V8.02823C2.35808 10.1594 1.64656 12.2434 0.351654 13.9295H11.6484Z" fill="black"/>
<path d="M10.9132 5.84311C10.7345 5.84311 10.5962 5.70485 10.5962 5.52613C10.5962 4.26831 9.99937 3.08806 8.94725 2.28886C8.809 2.17421 8.78202 1.98537 8.88318 1.83025C8.99784 1.69199 9.20017 1.66502 9.33842 1.76618C10.5457 2.69352 11.2437 4.06261 11.2437 5.50926C11.2302 5.70485 11.0886 5.84311 10.9132 5.84311Z" fill="black"/>
<path d="M1.08679 5.84311C0.908064 5.84311 0.769806 5.70485 0.769806 5.52613C0.769806 4.06599 1.46784 2.70701 2.67507 1.78304C2.81333 1.66839 3.01903 1.70548 3.13368 1.84711C3.24833 1.98874 3.21124 2.19107 3.06961 2.30572C2.0175 3.10492 1.42063 4.28518 1.42063 5.54299C1.41726 5.70485 1.26551 5.84311 1.08679 5.84311Z" fill="black"/>
<path d="M4.04416 14.577C4.31056 15.4031 5.08615 16 6 16C6.91386 16 7.68945 15.4031 7.95585 14.577H4.04416Z" fill="black"/>
</svg>
