<svg width="22" height="22" viewBox="0 0 16 16" fill="none" xmlns="http://www.w3.org/2000/svg">
<path d="M9.58154 1.83698C9.65572 1.35139 9.50398 0.842194 9.13304 0.467886C8.50919 -0.155962 7.49755 -0.155962 6.87707 0.467886C6.50614 0.838822 6.35439 1.35139 6.42858 1.83361C6.91754 1.64139 7.44697 1.53348 8.00337 1.53348C8.55978 1.53348 9.09258 1.64139 9.58154 1.83698Z" fill="black"/>
<path d="M13.6484 13.9295C12.34 12.24 11.6419 10.1729 11.6419 8.02823V5.81947C11.6419 3.81304 10.0031 2.17755 8 2.17755C5.99357 2.17755 4.35808 3.80293 4.35808 5.81947V8.02823C4.35808 10.1594 3.64656 12.2434 2.35165 13.9295H13.6484Z" fill="black"/>
<path d="M12.9132 5.84311C12.7345 5.84311 12.5962 5.70485 12.5962 5.52613C12.5962 4.26831 11.9994 3.08806 10.9473 2.28886C10.809 2.17421 10.782 1.98537 10.8832 1.83025C10.9978 1.69199 11.2002 1.66502 11.3384 1.76618C12.5457 2.69352 13.2437 4.06261 13.2437 5.50926C13.2302 5.70485 13.0886 5.84311 12.9132 5.84311Z" fill="black"/>
<path d="M3.08679 5.84311C2.90806 5.84311 2.76981 5.70485 2.76981 5.52613C2.76981 4.06599 3.46784 2.70701 4.67507 1.78304C4.81333 1.66839 5.01903 1.70548 5.13368 1.84711C5.24833 1.98874 5.21124 2.19107 5.06961 2.30572C4.0175 3.10492 3.42063 4.28518 3.42063 5.54299C3.41726 5.70485 3.26551 5.84311 3.08679 5.84311Z" fill="black"/>
<path d="M6.04416 14.577C6.31056 15.4031 7.08615 16 8 16C8.91386 16 9.68945 15.4031 9.95585 14.577H6.04416Z" fill="black"/>
<circle cx="12" cy="11" r="3.5" fill="#FD5959" stroke="#2C3E50"/>
</svg>
