<svg width="22" height="22" viewBox="0 0 16 16" fill="none" xmlns="http://www.w3.org/2000/svg">
<g clip-path="url(#clip0_9_94)">
<rect width="16" height="16" fill="#2C3E50"/>
<path d="M8.12632 0.585688C8.10579 0.585688 8.0864 0.59082 8.06701 0.59082C8.00656 0.589109 7.94668 0.585117 7.88565 0.585688H8.12632ZM8.03279 9.86689C8.02196 9.86689 8.01226 9.86517 8.00143 9.86517C7.99344 9.86517 7.98603 9.86689 7.97804 9.86689H8.03279ZM4.6406 6.45188C4.64915 6.45017 4.65543 6.44104 4.66455 6.43876C5.20121 8.38066 6.59048 9.83381 8.002 9.8646C9.28747 9.80529 10.8661 8.37838 11.3919 6.44618C11.6337 6.461 11.8755 6.17585 11.9434 5.77892C12.0135 5.36487 11.8664 4.99531 11.6172 4.95254C11.6012 4.94969 11.5847 4.95995 11.5693 4.96052C11.4968 1.76509 9.97869 0.638156 8.06701 0.58968C6.09546 0.599375 4.33035 1.96926 4.44213 4.96166C4.42331 4.96166 4.40563 4.94969 4.38738 4.95311C4.13702 4.99588 3.99102 5.36544 4.06117 5.77949C4.1296 6.19239 4.38966 6.49351 4.6406 6.45188ZM10.6579 10.4195L8.86658 13.9246L8.58371 11.6451L9.0257 11.2824H7.95466H6.97544L7.418 11.6451L7.13456 13.9246L5.3455 10.4195C2.2339 10.8387 0 12.1721 0 15.4137H16C16.0011 12.1715 13.7678 10.8393 10.6579 10.4195Z" fill="black"/>
</g>
<defs>
<clipPath id="clip0_9_94">
<rect width="16" height="16" fill="white"/>
</clipPath>
</defs>
</svg>
