<svg width="22" height="22" viewBox="0 0 19 20" fill="none" xmlns="http://www.w3.org/2000/svg">
<g clip-path="url(#clip0_16_174)">
<rect width="16" height="16" transform="translate(0 4)" fill="#2C3E50"/>
<path d="M7.50725 4.94836L6.08661 9.9891C6.0353 10.1632 5.90061 10.278 5.74989 10.278H0L4.65315 14.1817C4.77822 14.2817 4.82632 14.4706 4.77822 14.641L3.00482 20.9484L7.50725 17.1743V4.94836Z" fill="black"/>
<path d="M9.91017 9.98911L8.48953 4.94836V17.1632L12.992 20.9373L11.2218 14.6298C11.1705 14.4558 11.2218 14.2706 11.3468 14.1706L16 10.2817H10.2469C10.0994 10.278 9.96148 10.1632 9.91017 9.98911Z" fill="black"/>
</g>
<circle cx="14" cy="5" r="4.5" fill="#FD5959" stroke="#EDEDED"/>
<path d="M14.9805 8H14.2773V3.51953C14.1081 3.68099 13.8854 3.84245 13.6094 4.00391C13.3359 4.16536 13.0898 4.28646 12.8711 4.36719V3.6875C13.2643 3.5026 13.6081 3.27865 13.9023 3.01562C14.1966 2.7526 14.4049 2.4974 14.5273 2.25H14.9805V8Z" fill="white"/>
<defs>
<clipPath id="clip0_16_174">
<rect width="16" height="16" fill="white" transform="translate(0 4)"/>
</clipPath>
</defs>
</svg>
