<svg width="16" height="16" viewBox="0 0 16 16" fill="none" xmlns="http://www.w3.org/2000/svg">
<g clip-path="url(#clip0_205_72)">
<path d="M1.50709 4.42471C1.64439 4.48854 2.03343 4.68003 2.45842 4.23626C2.62842 4.01438 2.79841 3.79249 3.0011 3.57365C3.23975 3.32137 3.20379 2.91103 2.93245 2.68914C2.66111 2.46726 2.21977 2.50069 1.98112 2.75297C1.74247 3.00525 1.50382 3.29097 1.30113 3.57365C1.10171 3.85632 1.20305 4.23322 1.50709 4.42471Z" fill="#1D2730"/>
<path d="M8.14025 1.45198C8.78754 1.45198 9.43157 1.54621 10.0462 1.7377C10.4581 1.85016 10.7589 1.61004 10.8962 1.35776C10.9975 1.01125 10.7948 0.661709 10.4548 0.567483C9.70618 0.345598 8.95754 0.220978 8.17621 0.220978C7.80352 0.220978 7.49622 0.473258 7.49622 0.822803C7.49622 1.17235 7.76756 1.45198 8.14025 1.45198Z" fill="#1D2730"/>
<path d="M14.1948 5.30921C14.4334 5.8472 14.5674 6.41559 14.6361 6.98398C14.6361 6.98398 14.6753 7.68915 15.3847 7.58581C16.0876 7.5007 15.9961 6.85936 15.9961 6.85936C15.9274 6.16331 15.7247 5.46726 15.4534 4.83504C15.2834 4.51893 14.9107 4.36088 14.5707 4.48854C14.2275 4.64659 14.0575 4.9931 14.1948 5.30921Z" fill="#1D2730"/>
<path d="M11.7461 2.52806C12.2888 2.87457 12.7661 3.28794 13.1748 3.76211C13.4788 4.11469 13.9921 3.9688 14.0934 3.85633C14.3648 3.63445 14.4334 3.22411 14.1948 2.97183C13.7175 2.43384 13.1388 1.92928 12.4948 1.5159C12.1875 1.32745 11.7821 1.38824 11.5761 1.67396C11.3702 1.95967 11.4388 2.33657 11.7461 2.52806Z" fill="#1D2730"/>
<path d="M4.40031 2.4308C4.94299 2.11469 5.5576 1.86241 6.16893 1.70435C6.54162 1.61013 6.74758 1.26058 6.64623 0.944474C6.54489 0.597968 6.16893 0.406478 5.82894 0.500704C5.0803 0.689154 4.36762 0.974869 3.72032 1.35481C3.41302 1.54326 3.31167 1.9232 3.51763 2.20892C3.65167 2.40041 3.93936 2.58886 4.40031 2.4308Z" fill="#1D2730"/>
<path d="M15.316 8.37609C14.9433 8.28186 14.6033 8.50374 14.5347 8.85025C14.466 9.13597 14.2568 9.80162 14.2535 9.86545C13.3545 12.0387 11.1968 13.5676 8.71881 13.8138C6.28 14.0509 3.90658 13.0266 2.53026 11.1846L3.78889 11.443C4.12888 11.5068 4.50157 11.3153 4.57022 10.9688C4.63888 10.6527 4.43292 10.3062 4.06023 10.2424L1.40893 9.70436C1.23893 9.67396 0.709326 9.70436 0.591636 10.1785L0.0129921 12.677C-0.0556606 12.9931 0.150297 13.3396 0.522983 13.4035C0.938169 13.443 1.23566 13.215 1.34028 12.8989L1.54297 12.0417C3.05659 13.9475 5.78963 15.3579 8.85611 15.0509C11.9488 14.7408 14.5706 12.8047 15.5906 10.0873C15.6233 10.0083 15.777 9.34569 15.8293 9.10557C15.9306 8.75603 15.692 8.43992 15.316 8.37609Z" fill="#1D2730"/>
<path d="M5.38106 8.28186H8.5162C8.88889 8.28186 9.1635 7.99615 9.19619 7.64964V3.32744C9.19619 2.98094 8.88889 2.69522 8.5162 2.69522C8.14351 2.69522 7.83621 2.98094 7.83621 3.32744V7.01742H5.38106C5.00838 7.01742 4.70107 7.30314 4.70107 7.64964C4.70107 7.99615 5.00511 8.28186 5.38106 8.28186Z" fill="#1D2730"/>
</g>
<defs>
<clipPath id="clip0_205_72">
<rect width="16" height="14.876" fill="white" transform="translate(0 0.218994)"/>
</clipPath>
</defs>
</svg>
